<svg xmlns="http://www.w3.org/2000/svg">
    <symbol id="facebook" viewBox="0 0 80.56 155.14">
        <path d="M52.29,155.14V84.38H76L79.6,56.79H52.29V39.18c0-8,2.21-13.42,13.67-13.42h14.6V1.08A197.48,197.48,0,0,0,59.29,0C38.23,0,23.81,12.85,23.81,36.45V56.79H0V84.38H23.81v70.76Z"/>
    </symbol>
    <symbol id="instagram" viewBox="0 0 512 512">
        <path d="M405.1,0H106.9A107,107,0,0,0,0,106.9V405.1A107,107,0,0,0,106.9,512H405.1A107,107,0,0,0,512,405.1V106.9A107,107,0,0,0,405.1,0ZM106.9,482A77,77,0,0,1,30,405.1V204.34h79.52a158.62,158.62,0,0,0-13,63.06c0,87.94,71.55,159.48,159.49,159.48S415.49,355.34,415.49,267.4a158.62,158.62,0,0,0-13-63.06H482V405.1A77,77,0,0,1,405.1,482ZM405.1,30A77,77,0,0,1,482,106.9v67.44H385.45a159.33,159.33,0,0,0-258.89,0H30V106.9A77,77,0,0,1,106.9,30ZM385.49,267.4c0,71.4-58.09,129.48-129.49,129.48S126.51,338.8,126.51,267.4a129.49,129.49,0,0,1,259,0Z"/><path d="M397.3,85h30v30h-30Z"/><path d="M164.88,267.4A91.12,91.12,0,1,0,256,176.28a91.22,91.22,0,0,0-91.12,91.12Zm152.24,0A61.12,61.12,0,1,1,256,206.28,61.18,61.18,0,0,1,317.12,267.4Z"/>
    </symbol>
    <symbol id="viber" viewBox="0 0 469.33 512.45">
        <path d="M464.54,296.67C479.81,168.09,457.2,86.92,416.41,50.2l0,0C350.6-12.52,128.26-21.8,49.5,53,14.13,89.58,1.67,143.28.3,209.75s-3,191.07,113.09,224.86h.11l-.11,51.6s-.79,20.91,12.57,25.11c15.27,4.95,22.18-4.76,69.69-61.5,79.45,6.89,140.46-8.9,147.39-11.2,16-5.38,106.82-17.39,121.5-141.95ZM203.48,413.51s-50.28,62.7-65.92,79c-5.12,5.3-10.73,4.8-10.64-5.69,0-6.89.38-85.68.38-85.68-98.41-28.2-92.61-134.27-91.54-189.76S47,110.38,76.93,79.77C146,15,341,29.47,390.62,76.14,451.33,130,429.72,282,429.85,287.22c-12.48,104-86,110.57-99.56,115.07-5.78,1.92-59.44,15.72-126.81,11.22Z"/><path d="M231.3,92c-8.21,0-8.21,12.8,0,12.91,63.72.49,116.2,44.9,116.78,126.38,0,8.59,12.59,8.49,12.48-.11h0c-.69-87.79-58-138.69-129.24-139.18Z"/><path d="M315.12,217.73c-.19,8.49,12.37,8.9,12.48.3,1-48.4-28.8-88.28-84.89-92.48-8.21-.6-9.06,12.31-.87,12.91,48.64,3.69,74.26,36.88,73.28,79.27Z"/><path d="M301.68,272.79c-10.54-6.1-21.27-2.3-25.71,3.69l-9.28,12c-4.71,6.1-13.52,5.29-13.52,5.29-64.3-17-81.5-84.29-81.5-84.29s-.79-9.11,5.1-14l11.61-9.6c5.8-4.6,9.47-15.7,3.56-26.6-15.79-28.52-26.39-38.36-31.79-45.91-5.67-7.1-14.2-8.7-23.08-3.9h-.19c-18.45,10.79-38.66,31-32.19,51.79,11,21.94,31.29,91.84,95.89,144.67,30.36,25,78.4,50.58,98.79,56.49l.2.3c20.09,6.69,39.63-14.3,50.07-33.31v-.15c4.63-9.19,3.09-17.89-3.67-23.59-12-11.69-30.08-24.6-44.29-32.9Z"/><path d="M251.5,173.17c20.5,1.19,30.45,11.9,31.51,33.9.39,8.59,12.87,8,12.48-.6-1.36-28.72-16.34-44.72-43.3-46.21-8.22-.49-9,12.42-.69,12.91Z"/>
    </symbol>
    <symbol id="twitter" viewBox="0 0 512 416">
        <path d="M512,49.25a218.64,218.64,0,0,1-60.48,16.57,104.36,104.36,0,0,0,46.18-58,210,210,0,0,1-66.56,25.41A105,105,0,0,0,249.57,105,108,108,0,0,0,252,128.93C164.74,124.67,87.52,82.85,35.65,19.14A105,105,0,0,0,67.9,159.42,103.69,103.69,0,0,1,20.48,146.5v1.15a105.43,105.43,0,0,0,84.1,103.13,104.65,104.65,0,0,1-27.52,3.46,92.77,92.77,0,0,1-19.88-1.79c13.6,41.57,52.2,72.13,98.08,73.12A210.93,210.93,0,0,1,25.12,370.34,197.72,197.72,0,0,1,0,368.9,295.54,295.54,0,0,0,161,416c193.16,0,298.76-160,298.76-298.69,0-4.64-.16-9.12-.39-13.57A209.29,209.29,0,0,0,512,49.25Z"/>
    </symbol>
    <symbol id="telegram" viewBox="0 0 512 450">
        <path d="M123.2,260.74l63.68,159.19L269.78,337,411.92,450,512,0,0,213.27ZM365.7,129.11,209,272.05l-19.52,73.57L153.4,255.45Z"/>
    </symbol>
    <symbol id="phone" viewBox="0 0 53.94 53.94">
        <g id="Layer_2" data-name="Layer 2"><g id="Capa_1" data-name="Capa 1"><path d="M53.36,40.9c-2-3.79-9-7.91-9.28-8.09A5.55,5.55,0,0,0,41.37,32a3.37,3.37,0,0,0-3,1.68,34.73,34.73,0,0,1-2.59,2.87c-2.38,1.61-4.24,1.43-6.3-.63L18,24.46c-2-2-2.24-3.92-.63-6.29a33,33,0,0,1,2.87-2.59,3.34,3.34,0,0,0,1.54-2,5,5,0,0,0-.65-3.73C21,9.55,16.83,2.58,13,.57A5,5,0,0,0,10.73,0,4.9,4.9,0,0,0,7.24,1.44L4.7,4C.69,8-.77,12.54.38,17.5c1,4.13,3.74,8.53,8.28,13.07L23.37,45.28c5.74,5.74,11.22,8.66,16.28,8.66h0c3.72,0,7.19-1.59,10.3-4.7l2.54-2.54A4.91,4.91,0,0,0,53.36,40.9Z"/></g></g>
    </symbol>
    <symbol id="cart" viewBox="0 0 252.07 225.41">
        <g id="Layer_2" data-name="Layer 2">
            <g id="Layer_1-2" data-name="Layer 1">
                <path d="M203.22,164.83H83a30.17,30.17,0,0,1-30-25.78L37.92,39.54A11.2,11.2,0,0,1,49,26.66H230.31a21.75,21.75,0,0,1,21.28,26.28L232.9,140.8A30.48,30.48,0,0,1,203.22,164.83Z"/><path class="cls-1" d="M49,49.06a11.2,11.2,0,0,1-11.09-9.74l-1.6-12.1a5.55,5.55,0,0,0-5.49-4.81H11.2A11.21,11.21,0,0,1,11.2,0H30.8A28,28,0,0,1,58.51,24.29l1.6,12.1A11.22,11.22,0,0,1,50.46,49,12.25,12.25,0,0,1,49,49.06Z"/>
                <circle cx="77.16" cy="203" r="22.41"/>
                <circle cx="203.7" cy="203" r="22.41"/>
            </g>
        </g>
    </symbol>
    <symbol id="search" viewBox="0 0 487.95 487.55">
        <g id="Layer_2" data-name="Layer 2"><g id="Capa_1" data-name="Capa 1"><path d="M481.8,452.8l-140-140.1A189.12,189.12,0,0,0,386,191.1C386,85.7,299.5,0,193.1,0S0,85.8,0,191.2,86.5,382.3,192.9,382.3a193.42,193.42,0,0,0,119.8-41.4L453.2,481.4c8.2,8.2,20.4,8.2,28.6,0S490,461,481.8,452.8ZM41,191.2c0-82.8,68.2-150.1,151.9-150.1s151.9,67.3,151.9,150.1S276.6,341.3,192.9,341.3,41,273.9,41,191.2Z"/></g></g>
    </symbol>
</svg>
