<svg xmlns="http://www.w3.org/2000/svg" viewBox="0 0 785.6 500">
    <defs>
        <style>
            .cls-1{fill:#fff;}
            .cls-2{fill:#009f4f;}
            .cls-3{fill:#cc382b;}
            .cls-4{fill:#231f1f;}
            .cls-5{fill:#ec1c24;}
        </style>
    </defs>
    <g id="Layer_2" data-name="Layer 2">
        <g id="layer">
            <g id="Website">
                <g id="Page-1">
                    <g id="Group-3">
                        <path id="Fill-1" class="cls-1" d="M392.8,500C189.7,500,0,398.8,0,250S189.7,0,392.8,0,785.6,101.1,785.6,250,595.9,500,392.8,500"/>
                    </g>
                    <path id="Fill-4" class="cls-2" d="M392.8,479.59c201.1,0,371.4-99.6,371.4-229.5S593.8,20.59,392.8,20.59,21.4,120.19,21.4,250.09s170.3,229.5,371.4,229.5m0,11.9c-201.6,0-383.3-100.2-383.3-241.4S191.2,8.59,392.8,8.59,776.2,108.79,776.2,250s-181.8,241.5-383.4,241.5"/>
                    <path id="Fill-6" class="cls-3" d="M392.8,34.09C193.8,34.09,36,132.29,36,250s157.8,215.9,356.8,215.9S749.7,367.69,749.7,250,591.8,34.09,392.8,34.09m0-6.5c198.4,0,362.7,98.1,362.7,222.4s-164.3,222.4-362.7,222.4S30.1,374.29,30.1,250,194.4,27.59,392.8,27.59"/>
                    <path id="Fill-8" class="cls-4" d="M353.5,90.09h-1.6a23.4,23.4,0,0,0-11.8,3.4,17.07,17.07,0,0,1-.7-4.5c0-6.3,3-9.4,8.9-9.4,1.2,0,2.9.1,5.2.2s4.1.2,5.3.2h13.4a48.17,48.17,0,0,0,14.1-2.1l.1,1.4v.4a11.45,11.45,0,0,1-2.7,7.4,7.72,7.72,0,0,1-6.4,3.4q-1.35,0-4.8-.3a27.58,27.58,0,0,0-3.8-.2h-.9l-8.3,41.9a72.33,72.33,0,0,0-1.7,12.9,8.81,8.81,0,0,0,.9,3.8,29.22,29.22,0,0,1-11.1,2.7c-3.8,0-5.8-1.3-5.8-3.9a46.4,46.4,0,0,1,1.7-9.5q2.4-9.6,2.4-9.9Z"/>
                    <path id="Fill-10" class="cls-4" d="M399.7,115.69c7.1-14.3,14.6-21.5,22.5-21.5,5.8,0,8.7,2.9,8.7,8.9,0,4.1-1,10.3-3,18.5S425,136,425,140.09a12.83,12.83,0,0,0,2.5,8.3,17.36,17.36,0,0,1-9.4,3q-7.8,0-7.8-7.5c0-3.9.9-10,2.8-18.1s2.8-14,2.8-17.2c0-1.5-.4-2.3-1.4-2.3-2.6,0-6.7,5.4-12.3,16.3s-8.4,18.9-8.4,23.9a12.32,12.32,0,0,0,.7,3.8,29.9,29.9,0,0,1-8.2,1.1c-4.8,0-7.1-1.7-7.1-5.1a37.72,37.72,0,0,1,1.5-9c1.4-5.6,2.2-8.7,2.3-9l5.6-28.5a79.25,79.25,0,0,0,1.8-13.9,13.85,13.85,0,0,0-.5-3.6,17.69,17.69,0,0,1,9.2-2.9c4.3,0,6.4,1.8,6.4,5.4.1,2.2-1.9,12.4-5.8,30.9"/>
                    <path id="Fill-12" class="cls-4" d="M453,120.39c10.9-.2,16.3-4.8,16.3-13.9,0-3.9-1.4-5.8-4.1-5.8-5.2,0-9.2,6.6-12.2,19.7m-.7,7.2a40.73,40.73,0,0,0-.4,5.6q0,10.5,8.4,10.5c5.2,0,11.3-2.7,18.1-8.1a8.62,8.62,0,0,1,1,3.8c0,3.6-2.7,6.6-8.1,9.1a39.6,39.6,0,0,1-16.2,3.6c-13,0-19.5-5.6-19.5-17a45,45,0,0,1,10.4-28.9c6.9-8.7,15.3-13,25-13q12,0,12,10.2a20.48,20.48,0,0,1-8.9,17.4c-5.6,4.3-13,6.6-21.8,6.8"/>
                    <path id="Fill-14" class="cls-5" d="M111.2,339.19c-6.5-9.3-8.4-28.3-13.9-38.9-12.3-5.7-19-12.2-19-19.2,0-12.6,21.9-23.3,58.1-31.6v14.4c-27.2,6-42.1,12.2-42.1,17.3,0,14.4,120.4,38.3,301.4,38.3s301.4-23.9,301.4-38.3c0-3.7-7.9-8-22.6-12.3l-6.7-16.1c22.4,6.1,37.5,13.4,43,21.5l.3-.7-.3.7a12.13,12.13,0,0,1,2.3,6.9c0,6.6-6,12.6-16.8,18.1-6.5,10.9-9.5,30.4-16.2,40-16.8,27.4-129.8,62.2-284.6,62.2s-267.5-34.9-284.3-62.3"/>
                    <path id="Fill-16" class="cls-4" d="M195,248.09v20.1c0,9,.1,13.8,8.3,15.2l1.2.2v5.5h-51v-5.5l1.2-.2c8.2-1.4,8.2-6.2,8.2-15.2v-107c0-9-.1-13.7-8.2-15.1l-1.2-.2v-5.6h71.9c37.9,0,55.6,19.3,55.6,43.4,0,37.4-36.8,49.9-66.8,58.8Zm0-20.4c4.7-1.6,10-3.4,15.3-5.6a120.19,120.19,0,0,0,17.7-8.5c11-6.7,19.1-15.3,19.1-27.1,0-16.9-14.6-25.8-31.4-25.8H195v67Z"/>
                    <path id="Fill-18" class="cls-4" d="M318.2,273.09c0,7,.1,10.4,6.1,11.4l1.2.2v4.9H285.4v-4.9l1.2-.2c6-1,6.1-4.4,6.1-11.4V190c0-7-.1-10.4-6.1-11.4l-1.2-.2v-4.9h40.1v4.9l-1.2.2c-6,1-6.1,4.5-6.1,11.4Z"/>
                    <path id="Fill-20" class="cls-4" d="M427.6,188.09l-62.3,84.1h34.1c14.1,0,21.4-2.4,23.8-15.8l.2-1.2h7.3v34.4H332.5v-15.5l62.1-83.2H361.8c-9.8,0-14.7,2.1-15.5,11.6l-.2,1.3h-7.4v-30.3h88.9Z"/>
                    <path id="Fill-22" class="cls-4" d="M532.9,188.09l-62.3,84.1h34.1c14.1,0,21.5-2.4,23.8-15.8l.2-1.2h7.4v34.4H437.9v-15.5l62.1-83.2H467.3c-9.9,0-14.7,2.1-15.6,11.6l-.1,1.3h-7.5v-30.3h88.8v14.6Z"/>
                    <path id="Fill-24" class="cls-4" d="M610,232l-13.5-32.4-13,32.4Zm44.9,45.2c1.7,4.2,2.8,6.9,7,7.4l1.2.1v5H621.3v-4.9l1.2-.2c6.9-1,6.5-3.4,3.7-9.8l-9.8-26.3H577.6l-9,26.3c-2.5,6-2.3,8.2,4.2,9.9l1.1.3v4.8H538.4v-5l1.3-.1c2.5-.1,4.2-1.5,5.6-3.6a28.86,28.86,0,0,0,1.9-3.5q.75-1.95,1.5-3.6l38.8-100.5h26Z"/>
                    <path id="Fill-26" class="cls-1" d="M269.1,363.49c.2,1.7.3,2.7.3,3.2-.3,2.7-3.1,4.8-8.2,6.4a33.31,33.31,0,0,1-13.4,1.7c-9.2-1.1-13.3-6.9-12-17.3a45.77,45.77,0,0,1,12-26c6.7-7.3,14.3-10.5,22.6-9.5,7.5.9,10.9,3.2,10.5,7-.3,2.1-2.5,4.4-6.7,7-1-5.5-3.5-8.6-7.5-9.1-4.4-.5-8.2,2.3-11.7,8.5a55.64,55.64,0,0,0-6.5,20.3c-.9,7.6,1.1,11.7,6,12.4,3.9.5,8.8-1,14.6-4.6"/>
                    <path id="Fill-28" class="cls-1" d="M295.1,372.09c2.9.3,5.5-2.2,7.8-7.3a48.93,48.93,0,0,0,4.2-15.6c.4-5.4-.9-8.2-4.1-8.5-2.9-.3-5.6,2.1-8,7.1a48.14,48.14,0,0,0-4.2,15.7c-.5,5.5,1,8.4,4.3,8.6m-2.7,6.2a14.75,14.75,0,0,1-10.3-5c-2.4-3-3.4-6.7-3-11.3a32.62,32.62,0,0,1,8.8-19.6c5.3-5.8,11.2-8.3,17.8-7.7a13.45,13.45,0,0,1,10,5.1,14.92,14.92,0,0,1,3,11.1,32.43,32.43,0,0,1-8.9,19.6c-5.1,5.8-11,8.3-17.4,7.8"/>
                    <path id="Fill-30" class="cls-1" d="M355.4,379.89a23.55,23.55,0,0,1-5.8.5c-3.1-.2-4.5-1.4-4.4-3.9a48.63,48.63,0,0,1,1.3-5.9c3.7-13,5.5-20.6,5.7-22.9,0-.7-.2-1.1-.7-1.2-1.3-.1-4.5,3.8-9.6,11.6s-7.7,13.7-7.9,17.6a7.53,7.53,0,0,0,.4,2.9,24.33,24.33,0,0,1-5.8.6c-3.3-.2-4.9-1.5-4.8-4.1a22.37,22.37,0,0,1,1-4.9c4.5-14.7,6.9-24.4,7.1-28.9a8.08,8.08,0,0,0-.5-3.1,21.66,21.66,0,0,1,6.9-1.1c2.9.2,4.3,1.5,4.2,4.1a31.43,31.43,0,0,1-1.2,6.2l-1.8,6.1c6.9-10.8,12.9-16,18-15.7,3.6.2,5.4,2.5,5.1,6.9a36,36,0,0,1-.9,5,35.37,35.37,0,0,0-1,5c6.9-10.8,13-16,18.2-15.7,3.7.2,5.5,2.3,5.2,6.4a47.75,47.75,0,0,1-1.4,7c-3,11.5-4.6,18.5-4.7,21.1a9.89,9.89,0,0,0,1.5,6.3,12.38,12.38,0,0,1-6.8,1.9c-3.6-.2-5.3-2.1-5.1-5.8a55.14,55.14,0,0,1,1.9-11c2.5-9.7,3.8-15,3.8-16,0-.8-.2-1.1-.7-1.2-1.3-.1-4.5,3.8-9.6,11.6s-7.6,13.6-7.8,17.6a6.28,6.28,0,0,0,.2,3"/>
                    <path id="Fill-32" class="cls-1" d="M403.7,370.09c2.4,3.1,4.8,4.7,7.1,4.6,2.6,0,4.8-2.7,6.6-8a43,43,0,0,0,2.6-14.6c-.1-3-.7-4.5-2-4.4s-3.5,3-7,8.9a109.56,109.56,0,0,0-7.3,13.5M401.6,390a16.82,16.82,0,0,1-6.8,1.8c-3.1.1-4.6-1.2-4.7-3.8a22.8,22.8,0,0,1,.5-4l.9-3.9,4.7-26a64.45,64.45,0,0,0,1.2-10.4,11.75,11.75,0,0,0-.5-2.9,18.24,18.24,0,0,1,6.9-1.7q4.65-.15,4.8,3.9c0,1.5-.7,5.7-2.1,12.3,5.9-11.2,11.5-16.9,16.6-17,5.3-.1,8.1,3.7,8.2,11.3a38.91,38.91,0,0,1-6.1,21.1c-4.2,6.9-9.3,10.3-15.2,10.4a13.41,13.41,0,0,1-7.9-2.1,45.33,45.33,0,0,0-.8,7.4,28.66,28.66,0,0,0,.3,3.6"/>
                    <path id="Fill-34" class="cls-1" d="M464.9,348c-2.6-3-5-4.5-7.3-4.3-2.6.1-4.7,3-6.4,8.6a45.23,45.23,0,0,0-2.1,15.1c.1,3,.9,4.4,2.3,4.4,1.2-.1,3.3-2.9,6.4-8.5a124.68,124.68,0,0,0,7.1-15.3m-2.3,15.7c-5.5,11.4-10.9,17.3-16,17.5-5.4.3-8.2-3.3-8.7-10.8a42,42,0,0,1,5.3-21.9c4-7.2,8.9-11,15-11.3a14.4,14.4,0,0,1,8,1.9,5.71,5.71,0,0,1,4.5-2.1,15.82,15.82,0,0,1,7,1.3c-1.3,3-2.4,7.9-3.4,14.8a87.83,87.83,0,0,0-1.1,16.4,18.16,18.16,0,0,0,2,7.6,9.38,9.38,0,0,1-6.1,2.6c-4.3.2-6.6-2-6.8-6.7a79.23,79.23,0,0,1,.3-9.3"/>
                    <path id="Fill-36" class="cls-1" d="M499.5,351.49c4.5-11.5,9.6-17.5,15.2-18,4.3-.4,6.6,1.6,7,5.9a69.72,69.72,0,0,1-1.1,14.2c-.9,6.3-1.3,11.1-1,14.2a9.11,9.11,0,0,0,2.4,5.9,12.59,12.59,0,0,1-6.7,2.8c-3.8.3-5.9-1.4-6.2-5a61.57,61.57,0,0,1,.3-10.2c1.2-10.3,1.7-16,1.6-17s-.5-1.6-1.2-1.6c-1.3.1-3.9,4.3-7.6,12.6s-5.4,14.7-5,19.1a7.71,7.71,0,0,0,.7,2.7,26.52,26.52,0,0,1-5.9,1.4c-3.5.3-5.3-.8-5.6-3.3a23.2,23.2,0,0,1,.3-5l.8-4.9c1.8-12.3,2.5-20.5,2.2-24.6a8,8,0,0,0-.9-3.1,21.66,21.66,0,0,1,6.9-2c3.1-.3,4.7.9,5,3.5.1,1.3-.3,5.5-1.2,12.4"/>
                    <path id="Fill-38" class="cls-1" d="M528.9,334.79a14.32,14.32,0,0,1,8.2-4.3c2.7-.4,4.7,1.7,6.1,6.3,1.9,8.4,3.7,15.8,5.5,22l5.5-13.3c2.3-6.3,3.3-10.9,2.9-13.8a12.08,12.08,0,0,0-1.1-3.5c6.4-.7,9.7.4,10.2,3.2q.75,5.1-11.1,28.2c-7.9,15.3-14.5,23.4-19.9,24.1q-5,.75-5.4-2.7c-.2-1.6.4-3.8,1.9-6.5a5.78,5.78,0,0,0,3.8.7c3-.4,5.3-2.7,6.8-6.9-5.8-19.1-10.3-30.3-13.4-33.5"/>
                </g>
            </g>
        </g>
    </g>
</svg>
